<svg data-v-423bf9ae="" xmlns="http://www.w3.org/2000/svg" viewBox="0 0 228.46796657381617 60" class="font"><!----><!----><!----><g data-v-423bf9ae="" id="95b8bf52-4da7-4013-9ec2-deb694739d18" fill="black" transform="matrix(5.348189353942871,0,0,5.348189353942871,-0.9192161560058594,-30.919219970703125)"><path d="M4.87 14.40L0.17 14.40L0.29 13.67L1.49 13.24L1.49 7.18L0.26 6.92L0.34 6.12L0.34 6.12Q2.60 5.78 4.18 5.78L4.18 5.78L4.18 5.78Q6.18 5.78 7.01 6.55L7.01 6.55L7.01 6.55Q7.66 7.16 7.66 8.34L7.66 8.34L7.66 8.34Q7.66 9.53 6.71 10.36L6.71 10.36L6.71 10.36Q5.77 11.18 4.38 11.18L4.38 11.18L4.38 11.18Q4.17 11.18 3.76 11.16L3.76 11.16L3.60 10.28L3.84 10.27L3.84 10.27Q4.76 10.26 5.22 9.82L5.22 9.82L5.22 9.82Q5.69 9.39 5.69 8.59L5.69 8.59L5.69 8.59Q5.69 7.80 5.25 7.29L5.25 7.29L5.25 7.29Q4.81 6.79 3.94 6.79L3.94 6.79L3.94 6.79Q3.65 6.79 3.36 6.84L3.36 6.84L3.36 13.18L4.99 13.58L4.87 14.40ZM7.79 16.04L7.79 16.04L7.79 16.04Q7.79 15.39 8.27 14.95L8.27 14.95L8.27 14.95Q8.80 15.42 9.55 15.42L9.55 15.42L9.55 15.42Q10.29 15.42 10.62 14.70L10.62 14.70L10.73 14.46L8.70 9.40L7.83 9.06L7.96 8.26L11.29 8.26L11.18 9.05L10.45 9.37L11.63 12.54L12.89 9.42L12.04 9.05L12.19 8.26L14.79 8.26L14.71 9.05L14.03 9.40L11.80 14.63L11.80 14.63Q11.23 15.96 10.64 16.48L10.64 16.48L10.64 16.48Q10.04 17.00 9.11 17.00L9.11 17.00L9.11 17.00Q8.59 17.00 8.19 16.71L8.19 16.71L8.19 16.71Q7.79 16.42 7.79 16.04ZM16.22 7.03L14.94 6.64L15.05 5.89L22.43 5.89L22.09 8.39L21.22 8.26L20.90 6.79L18.16 6.79L18.16 10.04L19.76 10.04L20.07 9.13L21.08 8.93L20.80 11.98L19.88 12.17L19.66 10.94L18.16 10.94L18.16 13.21L19.74 13.62L19.63 14.40L15.02 14.40L15.10 13.67L16.22 13.24L16.22 7.03ZM25.13 11.71L25.13 11.71Q25.13 12.41 25.33 12.70L25.33 12.70L25.33 12.70Q25.53 13.00 26.02 13.00L26.02 13.00L26.02 13.00Q26.50 13.00 26.96 12.56L26.96 12.56L26.96 9.86L26.02 9.46L26.17 8.44L28.40 8.20L28.65 8.46L28.65 12.39L28.65 12.39Q28.65 12.88 28.83 13.07L28.83 13.07L28.83 13.07Q29.00 13.26 29.49 13.40L29.49 13.40L29.74 13.47L29.63 14.33L29.63 14.33Q28.90 14.59 28.31 14.59L28.31 14.59L28.31 14.59Q27.72 14.59 27.41 14.33L27.41 14.33L27.41 14.33Q27.09 14.08 27.09 13.59L27.09 13.59L27.09 13.51L27.00 13.49L27.00 13.49Q26.67 14.02 26.17 14.30L26.17 14.30L26.17 14.30Q25.67 14.58 25.10 14.58L25.10 14.58L25.10 14.58Q24.23 14.58 23.83 14.11L23.83 14.11L23.83 14.11Q23.43 13.64 23.43 12.57L23.43 12.57L23.43 9.82L22.53 9.27L22.70 8.37L24.86 8.22L25.13 8.49L25.13 11.71ZM33.46 14.40L29.91 14.40L30.01 13.61L31.01 13.22L31.01 9.75L30.00 9.29L30.13 8.46L32.53 8.22L32.71 8.42L32.57 9.21L32.66 9.23L32.66 9.23Q33.65 8.15 34.67 8.15L34.67 8.15L34.67 8.15Q35.46 8.15 35.90 8.64L35.90 8.64L35.90 8.64Q36.34 9.13 36.34 10.10L36.34 10.10L36.34 13.22L37.34 13.56L37.23 14.40L34.20 14.40L34.23 13.61L34.71 13.22L34.71 10.96L34.71 10.96Q34.71 9.73 33.78 9.73L33.78 9.73L33.78 9.73Q33.14 9.73 32.68 10.20L32.68 10.20L32.68 13.22L33.61 13.56L33.46 14.40ZM37.55 11.53L37.55 11.53L37.55 11.53Q37.55 10.73 37.84 10.05L37.84 10.05L37.84 10.05Q38.14 9.37 38.61 8.93L38.61 8.93L38.61 8.93Q39.62 8.01 40.84 8.01L40.84 8.01L40.84 8.01Q41.68 8.01 42.16 8.40L42.16 8.40L42.16 8.40Q42.64 8.78 42.64 9.29L42.64 9.29L42.64 9.29Q42.64 10.22 41.51 10.32L41.51 10.32L41.51 10.32Q41.28 9.64 41.02 9.31L41.02 9.31L41.02 9.31Q40.77 8.99 40.41 8.99L40.41 8.99L40.41 8.99Q39.88 8.99 39.59 9.47L39.59 9.47L39.59 9.47Q39.31 9.96 39.31 10.90L39.31 10.90L39.31 10.90Q39.31 11.79 39.76 12.56L39.76 12.56L39.76 12.56Q39.97 12.94 40.33 13.17L40.33 13.17L40.33 13.17Q40.69 13.41 41.17 13.41L41.17 13.41L41.17 13.41Q41.93 13.41 42.67 12.95L42.67 12.95L42.89 13.51L42.89 13.51Q42.62 13.97 41.96 14.28L41.96 14.28L41.96 14.28Q41.30 14.60 40.55 14.60L40.55 14.60L40.55 14.60Q39.09 14.60 38.32 13.75L38.32 13.75L38.32 13.75Q37.55 12.90 37.55 11.53Z"></path></g><!----><!----></svg>